<svg xmlns="http://www.w3.org/2000/svg" viewBox="181.02 187.81 661.97 392.38">
    <path d="M213.493 253.945v48.91c0 9.109-7.129 16.435-16.039 16.435a16.395 16.395 0 0 1-16.436-16.435v-48.91c0-36.435 29.703-66.138 66.138-66.138 18.02 0 34.653 7.129 46.733 19.208 6.138 6.535 6.138 16.435 0 22.97-6.535 6.139-16.436 6.139-22.97.198-5.94-6.337-14.653-9.901-23.762-9.901-18.415 0-33.663 15.049-33.663 33.663zm284.28 42.45-32.201-70.29-.248-.495-.525-1.046-1.019-1.962-.328-.576c-6.194-11.07-15.465-20.181-26.594-26.211a68.48 68.48 0 0 0-2.667-1.364l-.314-.154a67.71 67.71 0 0 0-2.464-1.114l-.594-.255a67.55 67.55 0 0 0-2.291-.904l-.85-.316-.947-.352c-.154-.052-.308-.078-.462-.126a65.618 65.618 0 0 0-20.88-3.423c-36.474 0-66.173 29.701-66.173 66.175 0 36.995 29.699 66.696 66.173 66.696 22.422 0 42.538-11.393 54.615-28.847l8.267 18.071a16.223 16.223 0 0 0 14.752 9.473c11.819 0 19.672-12.234 14.749-22.979zm-92.383-8.285c-18.497 0-33.608-15.11-33.608-34.129 0-18.498 15.112-33.608 33.608-33.608 4.407 0 8.626.88 12.513 2.437l.861.346c.865.375 1.713.777 2.541 1.219l.207.109c10.513 5.718 17.747 16.809 17.747 29.497 0 19.019-15.371 34.129-33.869 34.129z" fill="#d69829"/>
    <path d="m497.773 296.395-32.201-70.29-.248-.495a65.058 65.058 0 0 1 6.502 28.371c0 14.088-4.392 27.112-11.82 37.849l8.267 18.071a16.223 16.223 0 0 0 14.752 9.473c11.819 0 19.672-12.234 14.749-22.979z" fill="#ce712e"/>
    <path d="m465.324 225.61-.525-1.046-1.019-1.962-.328-.576a67.439 67.439 0 0 0-26.594-26.211 66.65 66.65 0 0 0-2.667-1.364l-.314-.154a67.71 67.71 0 0 0-2.464-1.114l-.594-.255a67.55 67.55 0 0 0-2.291-.904l-.85-.316c-.466-.168-.939-.321-1.409-.478-10.33-3.198-20.88 4.696-20.88 15.604 0 6.996 4.502 13.124 11.114 15.412.477.165.931.379 1.399.564l.861.346c.866.371 1.709.78 2.541 1.219l.207.109c6.324 3.395 11.525 8.681 14.621 15.168l23.872 52.177c7.428-10.737 11.82-23.76 11.82-37.849a65.055 65.055 0 0 0-6.502-28.371z" fill="#d2842b"/>
    <path d="M739.661 188.997a16.33 16.33 0 0 0-16.272 16.397v48.947c0 18.486-15.361 33.588-33.847 33.588s-33.587-15.102-33.587-33.588v-48.947a16.33 16.33 0 0 0-16.273-16.397 16.33 16.33 0 0 0-16.273 16.397v48.947c0 18.486-15.361 33.588-33.846 33.588s-33.588-15.102-33.588-33.588v-48.947a16.33 16.33 0 0 0-16.272-16.397 16.33 16.33 0 0 0-16.273 16.397v48.947c0 36.451 29.682 66.133 66.133 66.133 19.787 0 37.77-8.885 50.02-22.888 12.137 14.002 30.028 22.888 49.959 22.888 36.19 0 66.392-29.682 66.392-66.133v-48.947a16.33 16.33 0 0 0-16.273-16.397z" fill="#d69829"/>
    <path d="M689.542 320.473c-19.931 0-37.822-8.885-49.959-22.888 10.154-11.606 16.372-26.724 16.372-43.245 0 18.486 15.101 33.588 33.587 33.588s33.847-15.102 33.847-33.588v-48.947a16.33 16.33 0 0 1 16.272-16.397 16.33 16.33 0 0 1 16.273 16.397v48.947c0 36.451-30.202 66.133-66.392 66.133z" fill="#ce712e"/>
    <path d="M623.409 254.34v-48.947a16.33 16.33 0 0 1 16.273-16.397 16.33 16.33 0 0 1 16.273 16.397v48.947c0 16.521-6.218 31.64-16.372 43.245-10.061-11.606-16.174-26.724-16.174-43.245z" fill="#d2842b"/>
    <path d="M810.51 302.855v-97.424a16.395 16.395 0 0 1 16.436-16.435c8.911 0 16.039 7.327 16.039 16.435v97.424c0 9.109-7.129 16.435-16.039 16.435a16.395 16.395 0 0 1-16.436-16.435zM619.653 516.577q.967-5.607.967-12.568 0-12.182-5.124-25.33h17.789q4.834 11.408 4.834 24.17 0 7.928-.773 13.922-4.447 33.838-32.581 48.823-27.457 14.599-58.588 14.599v-17.789q29.391 0 49.017-12.375 21.076-13.342 24.46-33.451z" fill="#d69829"/>
    <path d="M547.014 381.419h17.789v150.434h-17.789z" fill="#d38b2a"/>
    <path d="M509.47 488.153q-6.091 0-10.345 5.511-2.32 3.19-2.32 6.671 0 4.931 4.931 9.475 4.544 4.254 23.106 4.254 0-17.789-8.314-23.493-3.577-2.417-7.058-2.417zm32.678 25.91q0 29.777-16.629 45.246-9.185 8.508-18.176 12.568-18.562 8.314-53.851 8.314v-17.789q34.708 0 47.663-7.348 16.242-9.185 22.236-23.493-11.408 0-15.759-.967-14.502-3.19-18.369-6.478-11.215-9.475-11.215-22.72 0-13.632 8.604-22.043 10.055-9.958 23.3-9.958 8.604 0 15.565 4.931 12.568 8.701 14.985 22.526 1.644 9.861 1.644 17.209z" fill="#d17e2c"/>
    <path d="M467.576 530.692q-9.861 16.436-43.022 23.493-17.112 3.674-28.714 3.674-12.472 0-19.433-2.514-28.327-10.055-28.327-35.288 0-11.312 6.091-22.236h17.789q-6.381 12.665-6.284 22.236.193 14.212 16.049 18.563 9.378 2.514 15.275 1.934 12.182-1.063 24.653-3.384 17.112-3.19 25.233-10.925 5.704-5.414 5.704-10.538 0-7.154-12.182-9.958-6.381-1.45-17.402-5.897-6.478-2.61-12.085-7.541-6.187-5.511-6.284-16.629 0-14.502 18.369-21.656 9.185-3.577 19.239-3.577 10.055 0 19.336 4.061 13.632 5.897 16.242 22.623h-17.789q-1.257-5.897-7.638-9.088-3.867-1.934-10.538-2.127-7.541-.193-13.535 3.577-5.801 3.674-5.801 6.961 0 5.317 12.085 9.378 23.977 8.024 29.487 14.212 7.444 8.218 7.638 16.822.097 6.574-4.157 13.825zm-59.555 34.998h14.502v14.502h-14.502zm-24.17 0h14.502v14.502h-14.502z" fill="#ce712e"/>
</svg>
